<svg width="1600" height="900" viewBox="0 0 1600 900" fill="none" xmlns="http://www.w3.org/2000/svg">
  <defs>
    <linearGradient id="bg" x1="88" y1="84" x2="1480" y2="816" gradientUnits="userSpaceOnUse">
      <stop stop-color="#F4E9DA"/>
      <stop offset="0.55" stop-color="#FBF7F1"/>
      <stop offset="1" stop-color="#E8DED2"/>
    </linearGradient>
  </defs>
  <rect width="1600" height="900" rx="48" fill="url(#bg)"/>
  <circle cx="1336" cy="166" r="212" fill="#EF6B4A" fill-opacity="0.2"/>
  <circle cx="272" cy="742" r="214" fill="#4AB7B2" fill-opacity="0.14"/>

  <rect x="104" y="112" width="1392" height="676" rx="44" fill="#FFFFFF" fill-opacity="0.72" stroke="#162638" stroke-opacity="0.08"/>
  <rect x="166" y="178" width="560" height="544" rx="36" fill="#162334"/>
  <rect x="776" y="178" width="658" height="250" rx="36" fill="#FFFFFF"/>
  <rect x="776" y="462" width="312" height="214" rx="32" fill="#EF6B4A" fill-opacity="0.14"/>
  <rect x="1122" y="462" width="312" height="214" rx="32" fill="#162334"/>

  <text x="226" y="254" fill="#F1E7DA" font-size="22" font-family="Arial, sans-serif" letter-spacing="6">AI CONTENT OPERATIONS</text>
  <text x="226" y="340" fill="#FFFFFF" font-size="74" font-weight="700" font-family="Arial, sans-serif">A public brand</text>
  <text x="226" y="420" fill="#FFFFFF" font-size="74" font-weight="700" font-family="Arial, sans-serif">for editorial scale</text>
  <text x="226" y="504" fill="#D7DDE6" font-size="28" font-family="Arial, sans-serif">Built for search performance, review-first workflow,</text>
  <text x="226" y="546" fill="#D7DDE6" font-size="28" font-family="Arial, sans-serif">use cases, examples, assets and multi-site publishing.</text>
  <rect x="226" y="618" width="236" height="78" rx="24" fill="#EF6B4A"/>
  <text x="264" y="666" fill="#FFF8F3" font-size="28" font-weight="700" font-family="Arial, sans-serif">Built by Tecnoria</text>

  <text x="834" y="252" fill="#162638" font-size="22" font-family="Arial, sans-serif" letter-spacing="5">POSITIONING LAYER</text>
  <text x="834" y="322" fill="#162638" font-size="48" font-weight="700" font-family="Arial, sans-serif">Use cases, gallery, examples and FAQ</text>
  <rect x="834" y="362" width="304" height="18" rx="9" fill="#EF6B4A"/>

  <text x="824" y="522" fill="#162638" font-size="22" font-family="Arial, sans-serif" letter-spacing="4">SHOWCASE</text>
  <rect x="824" y="566" width="206" height="18" rx="9" fill="#162638" fill-opacity="0.24"/>
  <rect x="824" y="604" width="178" height="18" rx="9" fill="#162638" fill-opacity="0.16"/>

  <text x="1170" y="522" fill="#F1E7DA" font-size="22" font-family="Arial, sans-serif" letter-spacing="4">STUDIO</text>
  <rect x="1170" y="568" width="216" height="18" rx="9" fill="#FFFFFF" fill-opacity="0.8"/>
  <rect x="1170" y="606" width="182" height="18" rx="9" fill="#FFFFFF" fill-opacity="0.56"/>
</svg>
